<svg width="29" height="29" viewBox="0 0 29 29" fill="none" xmlns="http://www.w3.org/2000/svg">
<path d="M26.1822 21.5069C27.5443 19.2878 28.2636 16.7341 28.26 14.1302V14.1297C28.2636 11.5259 27.5443 8.97219 26.1821 6.75303L26.1744 6.74092C24.9107 4.68124 23.1399 2.98004 21.0312 1.79987C18.9226 0.619704 16.5465 9.87445e-06 14.13 1.18007e-10C11.7136 -9.87422e-06 9.33751 0.619665 7.22883 1.79981C5.12016 2.97996 3.34936 4.68115 2.08564 6.74082L2.07779 6.75309C0.71904 8.97377 1.00854e-05 11.5266 1.06096e-10 14.13C-1.00852e-05 16.7333 0.719 19.2861 2.07773 21.5068L2.08571 21.5193C3.34944 23.5789 5.12024 25.2801 7.2289 26.4602C9.33755 27.6403 11.7136 28.26 14.13 28.26C16.5465 28.26 18.9225 27.6403 21.0312 26.4601C23.1398 25.28 24.9106 23.5788 26.1743 21.5192L26.1822 21.5069ZM15.9361 25.8383C15.6669 26.0981 15.357 26.3121 15.0187 26.472C14.741 26.6039 14.4374 26.6723 14.13 26.6723C13.8226 26.6723 13.519 26.6039 13.2413 26.472C12.5975 26.1431 12.0464 25.6581 11.6384 25.0614C10.8051 23.8572 10.1876 22.5174 9.81337 21.1016C11.2508 21.0131 12.6897 20.9681 14.13 20.9664C15.5697 20.9664 17.0087 21.0115 18.4469 21.1016C18.2397 21.8295 17.981 22.5418 17.6727 23.2329C17.2667 24.205 16.6771 25.0895 15.9361 25.8383ZM1.61527 14.9238H7.31458C7.35169 16.5141 7.52406 18.0984 7.82984 19.6595C6.27187 19.7966 4.71788 19.9849 3.16787 20.2244C2.26022 18.596 1.72964 16.7846 1.61527 14.9238ZM3.16786 8.03561C4.71726 8.27571 6.2718 8.46405 7.83147 8.60062C7.52509 10.1616 7.35233 11.7459 7.31508 13.3362H1.61527C1.72963 11.4754 2.26021 9.66402 3.16786 8.03561ZM12.3238 2.42167C12.5931 2.16187 12.903 1.94782 13.2413 1.78801C13.519 1.65607 13.8226 1.58762 14.13 1.58762C14.4374 1.58762 14.741 1.65607 15.0187 1.78801C15.6625 2.11685 16.2136 2.60182 16.6216 3.19857C17.4549 4.40272 18.0724 5.74261 18.4466 7.15835C17.0092 7.24681 15.5703 7.29187 14.13 7.29353C12.6903 7.29351 11.2513 7.24845 9.81312 7.15834C10.0202 6.43042 10.2789 5.71819 10.5873 5.02704C10.9933 4.05502 11.5829 3.17042 12.3238 2.42167ZM26.6447 13.3362H20.9454C20.9083 11.7459 20.7359 10.1616 20.4302 8.60049C21.9881 8.46339 23.5421 8.27509 25.0921 8.0356C25.9998 9.66402 26.5304 11.4754 26.6447 13.3362ZM9.42663 19.5361C9.11615 18.0171 8.94079 16.4737 8.90263 14.9238H19.3575C19.3197 16.4737 19.1447 18.0171 18.8345 19.5361C17.268 19.4333 15.6999 19.3809 14.13 19.3788C12.5613 19.3788 10.9935 19.4312 9.42663 19.5361ZM18.8333 8.72391C19.1438 10.2428 19.3192 11.7863 19.3573 13.3362H8.90245C8.94027 11.7863 9.11531 10.2428 9.4255 8.72384C10.9919 8.82661 12.5601 8.87905 14.13 8.88115C15.6987 8.88115 17.2665 8.82873 18.8333 8.72391ZM20.9449 14.9238H26.6447C26.5304 16.7846 25.9998 18.596 25.0921 20.2244C23.5427 19.9842 21.9882 19.7959 20.4285 19.6594C20.7349 18.0984 20.9076 16.5141 20.9449 14.9238ZM24.1402 6.57434C22.7855 6.7698 21.4268 6.92454 20.064 7.03857C19.8191 6.12666 19.5032 5.2353 19.1192 4.37267C18.7687 3.57884 18.3276 2.82817 17.8047 2.13559C20.3315 2.91053 22.5489 4.46406 24.1402 6.57434ZM5.26117 5.26117C6.71066 3.81031 8.49392 2.73715 10.4546 2.13578C10.4249 2.1743 10.3943 2.21113 10.365 2.25045C9.35715 3.70123 8.62307 5.32403 8.19889 7.03882C6.83603 6.92339 5.47633 6.76856 4.11979 6.57434C4.46965 6.11093 4.85101 5.67217 5.26117 5.26117ZM4.11978 21.6856C5.47445 21.4902 6.83318 21.3354 8.19598 21.2214C8.44091 22.1333 8.7568 23.0247 9.14077 23.8873C9.49133 24.6811 9.93243 25.4318 10.4553 26.1244C7.92844 25.3495 5.71106 23.7959 4.11978 21.6856ZM22.9988 22.9988C21.5493 24.4497 19.7661 25.5228 17.8053 26.1242C17.8351 26.0857 17.8657 26.0488 17.895 26.0095C18.9028 24.5587 19.6369 22.936 20.0611 21.2212C21.424 21.3366 22.7837 21.4914 24.1402 21.6856C23.7903 22.149 23.409 22.5878 22.9988 22.9988Z" fill="#2C362B"/>
</svg>
