<svg width="42" height="32" viewBox="0 0 42 32" fill="none" xmlns="http://www.w3.org/2000/svg">
<path d="M37.6183 27.416C41.3923 23.32 41.0123 18.06 41.0003 18V2C41.0003 1.46957 40.7896 0.960859 40.4145 0.585787C40.0395 0.210714 39.5308 0 39.0003 0H27.0003C24.7943 0 23.0003 1.794 23.0003 4V18C23.0003 18.5304 23.211 19.0391 23.5861 19.4142C23.9612 19.7893 24.4699 20 25.0003 20H31.1563C31.1141 20.9888 30.8186 21.9501 30.2983 22.792C29.2823 24.394 27.3683 25.488 24.6063 26.04L23.0003 26.36V32H25.0003C30.5663 32 34.8123 30.458 37.6183 27.416ZM15.6043 27.416C19.3803 23.32 18.9983 18.06 18.9863 18V2C18.9863 1.46957 18.7756 0.960859 18.4005 0.585787C18.0255 0.210714 17.5168 0 16.9863 0H4.98633C2.78033 0 0.986328 1.794 0.986328 4V18C0.986328 18.5304 1.19704 19.0391 1.57211 19.4142C1.94719 19.7893 2.4559 20 2.98633 20H9.14233C9.10007 20.9888 8.80464 21.9501 8.28433 22.792C7.26833 24.394 5.35433 25.488 2.59233 26.04L0.986328 26.36V32H2.98633C8.55233 32 12.7983 30.458 15.6043 27.416Z" fill="#2AABEE"/>
</svg>
